<svg xmlns="http://www.w3.org/2000/svg" version="1.1" xmlns:xlink="http://www.w3.org/1999/xlink" xmlns:svgjs="http://svgjs.dev/svgjs" width="100%" height="100%" viewBox="0 0 1000 600"><rect width="1000" height="600" x="0" y="0" fill="#f96167"/><g><circle r="166.66666666666666" cx="295.33046976725257" cy="317.55271664767645" fill="#0077564" transform="matrix(0.9715239262657064,0,0,0.9715239262657064,0,-8.510067103719763)"/><path d="M261.63734824666085 341.0919980218486L261.63734824666085 341.0919980218486Q258.2728846123456 341.0919980218486 255.60286542924135 339.6192968580737Q252.9328462461371 338.158568874492 250.9931910548237 335.35684470926145Q249.0535358635103 332.555120544031 247.84424466398772 328.5919979000511L247.84424466398772 328.5919979000511Q247.59280787992859 327.6341434845878 247.8921373847609 326.95167221357013Q248.19146688959322 326.25722776235915 249.22116038621638 325.91000553675366L249.22116038621638 325.91000553675366Q250.26282706303286 325.5747564913415 250.8614860726975 325.8261932754006Q251.4721182625554 326.08960323965306 251.8073673079676 327.0354844749232L251.8073673079676 327.0354844749232Q253.01665850749015 330.5675726319444 254.57317193261818 332.6868255261573Q256.1177121775529 334.79410524017675 258.02144782828645 335.6561742140938Q259.9132102988267 336.5182431880109 261.98457047226634 336.5182431880109L261.98457047226634 336.5182431880109Q265.8638808548932 336.5182431880109 268.71349774089674 333.11786001311583Q271.5511414467071 329.70550365802734 274.13734836845833 321.7792583700677L274.13734836845833 321.7792583700677L297.92805741253073 248.15617336151138L295.1742259680734 248.15617336151138Q290.0018121245711 248.15617336151138 285.9069844984649 249.14994731755468Q281.81215687235886 250.14372127359798 278.49558595881683 252.29889370839064Q275.1790150452748 254.4540661431833 272.16177363656504 257.9861543002046L272.16177363656504 257.9861543002046Q271.46732918535406 258.84822327412166 270.68907247279003 258.9320355354747Q269.910815760226 259.01584779682776 269.0487467863089 258.4171887871631L269.0487467863089 258.4171887871631Q268.2824632539382 257.7227443359522 268.2345705331651 257.0761926055144Q268.18667781239185 256.4296408750766 268.88112226360283 255.48375963980646L268.88112226360283 255.48375963980646Q271.2039192211016 252.55033049244977 274.00564338633205 250.35923851707722Q276.8073675515626 248.15617336151138 280.13591164529794 246.69544537792967Q283.45248255883996 245.22274421415472 287.41560520281985 244.540272943137Q291.37872784679973 243.84582849192606 296.0362949419905 243.84582849192606L296.0362949419905 243.84582849192606L343.36627624607627 243.84582849192606Q344.3121574813463 243.84582849192606 344.5276747248256 244.4085679610108Q344.7431919683048 244.97130743009555 344.47978200405237 246.0010009267187L344.47978200405237 246.0010009267187Q344.1445329586402 247.1264798648882 343.6177130301354 247.6413266131998Q343.1028662818238 248.15617336151138 342.1569850465537 248.15617336151138L342.1569850465537 248.15617336151138L302.765222210621 248.15617336151138L289.40315311490644 289.53548410953067L323.1076553590251 289.53548410953067Q324.0535365942952 289.53548410953067 324.2211611170013 290.05033085784225Q324.4007588199007 290.56517760615384 324.13734885564827 291.60684428297026L324.13734885564827 291.60684428297026Q323.88591207158913 292.8161354824928 323.3231726025044 293.3309822308044Q322.7604331334196 293.845828979116 321.8145518981495 293.845828979116L321.8145518981495 293.845828979116L288.0142642124845 293.845828979116L278.71110320229616 322.46172964108536Q276.72355529020956 328.7596224227572 274.2690533505845 332.8544500488634Q271.81455141095955 336.94927767496944 268.71349774089674 339.0206378484091Q265.60047089064074 341.0919980218486 261.63734824666085 341.0919980218486ZM246.03629445480055 392.55272649262025L246.03629445480055 391.6906575187033L323.7901266300428 391.6906575187033L323.7901266300428 392.55272649262025L246.03629445480055 392.55272649262025ZM246.03629445480055 339.53548459672066L246.03629445480055 337.8113466488865L323.7901266300428 337.8113466488865L323.7901266300428 339.53548459672066L246.03629445480055 339.53548459672066ZM246.03629445480055 296.4320359008672L246.03629445480055 296.0010014139087L323.7901266300428 296.0010014139087L323.7901266300428 296.4320359008672L246.03629445480055 296.4320359008672ZM246.03629445480055 243.41479400496752L246.03629445480055 242.55272503105044L323.7901266300428 242.55272503105044L323.7901266300428 243.41479400496752L246.03629445480055 243.41479400496752Z " fill="#f96167" transform="matrix(0.9715239262657064,0,0,0.9715239262657064,0,-8.510067103719763)"/><path d="M581.6125376533232 341.26232718111845L581.6125376533232 341.26232718111845Q577.1457704125002 341.26232718111845 573.1554583440314 339.5113544227158Q569.1770576548718 337.7484702850042 566.1753900690386 334.2822589061255Q563.1737224832056 330.804136147938 561.410838345494 325.52739511411227Q559.6479542077825 320.25065408028667 559.6479542077825 313.2229402880583L559.6479542077825 313.2229402880583Q559.6479542077825 304.21793753055897 561.756268345451 295.51071925578117Q563.8526711038106 286.80350098100337 567.7119579998817 278.96581339577244Q571.5712448959529 271.1162144312327 576.8003404125432 264.5053989148145Q582.0413473084421 257.90649477770523 588.3782011007565 253.05856339899856Q594.7269662723797 248.2106320202919 601.849971099079 245.5543944344158Q608.9610645464694 242.89815684853966 616.4294993731255 242.89815684853966L616.4294993731255 242.89815684853966Q622.8616441999108 242.89815684853966 628.0907397165009 244.95882546897272Q633.3198352330912 247.01949408940578 637.0480969567649 251.128919950963Q640.7882700597474 255.25025719182912 642.7536476457095 261.42035167381937L642.7536476457095 261.42035167381937Q643.1824573008286 262.62340098401444 642.9323183353425 263.3976406390904Q642.6702679905475 264.1718802941664 641.5505983355146 264.6840696044475L641.5505983355146 264.6840696044475Q640.5262197149524 265.11287925956645 639.883005232274 264.71980374237404Q639.2397907495954 264.3386396044905 638.8109810944765 263.3976406390904L638.8109810944765 263.3976406390904Q637.0957424740003 257.9898744328673 633.8320245433723 254.42837201951767Q630.580217992053 250.8787809854769 626.0300710960679 249.16354236500086Q621.4918355793917 247.44830374452476 615.7386393732115 247.44830374452476L615.7386393732115 247.44830374452476Q609.1397352361022 247.44830374452476 602.8386155817145 249.97351615800343Q596.525584548018 252.4987285714821 590.831945238382 257.09652098470264Q585.1263945494374 261.6824020186143 580.3618428258927 267.8524965006046Q575.609202481657 274.0345023619038 572.083434206234 281.3600006368536Q568.5695773101198 288.69741029111236 566.6399338620841 296.7614140832116Q564.7102904140487 304.81350649600205 564.7102904140487 313.2229402880583L564.7102904140487 313.2229402880583Q564.7102904140487 319.30965511488654 566.1277445518032 323.7287768384742Q567.5451986895577 328.1478985620618 570.0346769651097 331.0185409754975Q572.512243861353 333.8891833889331 575.6925821368189 335.30663752668767Q578.8610090329762 336.72409166444214 582.3748659290903 336.72409166444214L582.3748659290903 336.72409166444214Q587.6158728249894 336.72409166444214 592.7615886864177 334.40137269921416Q597.9073045478458 332.090565113295 602.9577293748031 327.67144338970735Q608.0200655810693 323.2523216661197 612.9156424770114 316.7367971841724Q617.7993079936447 310.2212727022252 622.5162141999538 301.8118389101689Q627.233120406263 293.4143164974215 631.7832673022481 283.2896440848892L631.7832673022481 283.2896440848892Q632.1167859228962 282.34864511948916 632.7242662676482 281.96748098160555Q633.3198352330912 281.57440546441313 634.6062641984482 281.57440546441313L634.6062641984482 281.57440546441313Q635.8093135086433 281.57440546441313 636.3215028189244 281.96748098160555Q636.8336921292054 282.34864511948916 636.5001735085573 283.2896440848892L636.5001735085573 283.2896440848892L623.1117831653968 324.1099409763578Q622.0874045448347 327.11160856219084 621.7062404069512 329.47006166534544Q621.3131648897587 331.82851476850004 621.6109493724804 333.46037373381404Q621.9206452345107 335.09223269912815 622.9450238550728 335.9498520093661Q623.9694024756349 336.8074713196042 625.7799321305819 336.8074713196042L625.7799321305819 336.8074713196042Q627.828689371706 336.8074713196042 629.8059783369771 335.47339683701165Q631.7832673022481 334.151233733728 633.8796700606077 331.66175545817595Q635.9760728189673 329.1722771826239 638.1201210945625 325.65842028650974L638.1201210945625 325.65842028650974Q638.7276014393143 324.8008009762718 639.4065500599195 324.58639614871225Q640.0974100598335 324.37199132115273 641.0384090252335 324.8841806314338L641.0384090252335 324.8841806314338Q641.8960283354716 325.3963699417148 642.0746990251045 326.1348754588642Q642.2414583354285 326.8614695967048 641.7292690251475 327.7190889069428L641.7292690251475 327.7190889069428Q639.8353597150385 330.804136147938 637.8699821290763 333.29361442349006Q635.8926931638053 335.78309269904213 633.7962904054457 337.5817109746802Q631.6879762677771 339.3803292503183 629.5081938542555 340.3213282157183Q627.316500061425 341.26232718111845 625.0056924755058 341.26232718111845L625.0056924755058 341.26232718111845Q621.1464055794347 341.26232718111845 619.0857369590017 339.1659244227588Q617.0250683385685 337.06952166439913 616.8583090282445 333.210234768328Q616.6796383386117 329.3509478722569 618.3948769590877 324.02656132119574L618.3948769590877 324.02656132119574L624.1480731652679 306.36198580615405Q619.1691166141637 315.0215585636964 613.987666614809 321.53708304564367Q608.7943052361453 328.06451890689976 603.481830064393 332.435995113252Q598.1574435133319 336.8074713196042 592.6662976519467 339.0348992503613Q587.1870631698704 341.26232718111845 581.6125376533232 341.26232718111845ZM545.3304762785309 392.5527264850762L545.3304762785309 391.69510717483826L647.0417441968997 391.69510717483826L647.0417441968997 392.5527264850762L545.3304762785309 392.5527264850762ZM545.3304762785309 339.80913890543735L545.3304762785309 338.0939002849612L647.0417441968997 338.0939002849612L647.0417441968997 339.80913890543735L545.3304762785309 339.80913890543735ZM545.3304762785309 296.9281733935357L545.3304762785309 296.49936373841666L647.0417441968997 296.49936373841666L647.0417441968997 296.9281733935357L545.3304762785309 296.9281733935357ZM545.3304762785309 244.18458581389672L545.3304762785309 243.3269665036587L647.0417441968997 243.3269665036587L647.0417441968997 244.18458581389672L545.3304762785309 244.18458581389672ZM662.0500821260653 341.26232718111845L662.0500821260653 341.26232718111845Q658.2741748851562 341.26232718111845 655.7489624716775 339.5113544227158Q653.2237500581989 337.7484702850042 652.6162697134469 334.18696787165464Q652.0207007480038 330.6373768376139 653.8193190236419 325.14623097622876L653.8193190236419 325.14623097622876L662.9077014363033 297.44036270381673Q663.2531314362603 296.4159840832546 663.8129662637767 296.0229085660622Q664.3728010912932 295.64174442817864 665.5639390221794 295.64174442817864L665.5639390221794 295.64174442817864Q666.9456590220074 295.64174442817864 667.4578483322884 296.15393373845967Q667.9700376425694 296.66612304874076 667.6246076426125 297.7024130486117L667.6246076426125 297.7024130486117L658.369465919627 325.7417999416718Q657.1664166094321 329.3509478722569 657.249796264594 331.87616028573547Q657.3331759197561 334.40137269921416 658.8340097126727 335.68780166457117Q660.3348435055892 336.9742306299283 663.1697517810983 336.9742306299283L663.1697517810983 336.9742306299283Q665.7426097118124 336.9742306299283 668.7800114355721 335.6044220094091Q671.8293245386407 334.23461338889007 675.0930424692687 331.232945803057Q678.3448490205878 328.23127821722386 681.5609214339805 323.4309923557526Q684.7769938473731 318.63070649428147 687.8620410883682 311.7697520123772L687.8620410883682 311.7697520123772L692.4955676395155 297.3569830486547Q692.8409976394723 296.2373133936217 693.3531869497534 295.9037947729736Q693.8653762600345 295.5583647730166 695.0684255702295 295.5583647730166L695.0684255702295 295.5583647730166Q696.4382341907486 295.5583647730166 696.9980690182651 296.0229085660622Q697.5579038457815 296.49936373841666 697.2124738458245 297.5237423589788L697.2124738458245 297.5237423589788L686.4088528126872 330.458706147981Q685.7179928127732 332.6861340787381 685.6346131576112 334.18696787165464Q685.5512335024491 335.68780166457117 686.1110683299656 336.4263071817206Q686.6709031574821 337.1529013195612 687.8620410883682 337.1529013195612L687.8620410883682 337.1529013195612Q689.3271407433582 337.1529013195612 690.7445948811128 336.2476364920877Q692.1501376395585 335.3542830439231 693.400832466989 334.02020856133055Q694.6396159151104 332.6861340787381 695.5806148805106 331.399705113381L695.5806148805106 331.399705113381Q696.0094245356296 330.72075649277593 696.6169048803815 330.54208580314304Q697.2124738458245 330.37532649281894 698.0700931560626 330.9708954582621L698.0700931560626 330.9708954582621Q698.9277124663006 331.49499614785196 699.0110921214628 332.090565113295Q699.1063831559336 332.6861340787381 698.6775735008146 333.29361442349006L698.6775735008146 333.29361442349006Q697.6412835009436 334.92547338880405 695.973690397703 336.75982580236877Q694.2941859151535 338.6060895952423 692.0667579843964 339.9401640778348Q689.8393300536393 341.26232718111845 687.1830924677631 341.26232718111845L687.1830924677631 341.26232718111845Q685.1224238473301 341.26232718111845 683.7883493647375 340.53573304327784Q682.4661862614539 339.80913890543735 681.8229717787755 338.4750644228448Q681.1797572960969 337.1529013195612 681.1797572960969 335.25899200945224Q681.1797572960969 333.3769940786521 681.77532626154 330.9708954582621L681.77532626154 330.9708954582621L683.5739445371781 325.31299028655275Q680.917706951302 329.7797575273759 678.0470645378664 332.8171592511356Q675.1764221244307 335.8664723542042 672.3415138489216 337.7484702850042Q669.5185169527215 339.64237959511325 666.8980135047719 340.4523533881158Q664.2775100568224 341.26232718111845 662.0500821260653 341.26232718111845ZM647.0417441968997 392.5527264850762L647.0417441968997 391.69510717483826L702.4415693624148 391.69510717483826L702.4415693624148 392.5527264850762L647.0417441968997 392.5527264850762ZM647.0417441968997 339.80913890543735L647.0417441968997 338.0939002849612L702.4415693624148 338.0939002849612L702.4415693624148 339.80913890543735L647.0417441968997 339.80913890543735ZM647.0417441968997 296.9281733935357L647.0417441968997 296.49936373841666L702.4415693624148 296.49936373841666L702.4415693624148 296.9281733935357L647.0417441968997 296.9281733935357ZM647.0417441968997 244.18458581389672L647.0417441968997 243.3269665036587L702.4415693624148 243.3269665036587L702.4415693624148 244.18458581389672L647.0417441968997 244.18458581389672ZM708.9690052236709 341.09556787079435L708.9690052236709 341.09556787079435Q707.9327152238 341.09556787079435 707.2895007411214 340.6667582156753Q706.646286258443 340.2379485605563 706.9083366032379 339.29694959515626L706.9083366032379 339.29694959515626L717.7119576363752 306.01655580619706Q718.8316272914083 302.66945822040697 718.3551721190538 301.1328902895638Q717.8787169466993 299.5844109794118 715.9133393607372 299.5844109794118L715.9133393607372 299.5844109794118Q714.1981007402612 299.5844109794118 712.5185962577117 300.65643511720936Q710.8510031544711 301.7284592550069 709.135764533995 303.8367733926754Q707.420525913519 305.933176151035 705.5385279827188 309.01822339203017L705.5385279827188 309.01822339203017Q705.0144272931288 309.70908339194415 704.5022379828479 309.92348821950367Q703.9900486725668 310.13789304706313 703.0490497071668 309.79246304710614L703.0490497071668 309.79246304710614Q702.0127597072958 309.4470330471492 701.8460003969717 308.7680844265441Q701.6792410866476 308.0772244266301 702.1080507417666 307.3029847715541L702.1080507417666 307.3029847715541Q703.9900486725668 303.872507530602 706.2651221205593 301.21626994472587Q708.540195568552 298.5600323588497 711.1487876371926 297.0115530486977Q713.7692910851422 295.4749851178546 716.6875790158133 295.4749851178546L716.6875790158133 295.4749851178546Q718.6529566017754 295.4749851178546 720.0227652222944 296.1181996005331Q721.4044852221224 296.7614140832116 722.131079359963 298.00019753133324Q722.8576734978035 299.2389809794548 722.988698670201 300.95421959993087Q723.1197238425984 302.66945822040697 722.6909141874794 304.73012684084L722.6909141874794 304.73012684084L720.8803845325325 310.3046523573872Q723.3698628080846 305.933176151035 725.6449362560771 303.01488822036396Q727.9200097040697 300.09660028969284 729.9330328072673 298.3813616692168Q731.9460559104648 296.66612304874076 733.7089400481764 295.98717442813563Q735.459912806579 295.29631442822165 736.9250124615689 295.29631442822165L736.9250124615689 295.29631442822165Q737.9493910821311 295.29631442822165 738.5092259096476 295.7251240833407Q739.0690607371641 296.15393373845967 739.0690607371641 297.2736033934927L739.0690607371641 297.2736033934927Q739.0690607371641 300.44203028964984 739.4978703922831 302.2406485652879Q739.9266800474021 304.0511782202349 740.8676790128022 304.81350649600205Q741.8086779782022 305.587746151078 743.0951069435594 305.587746151078L743.0951069435594 305.587746151078Q745.2391552191543 305.587746151078 747.9906838395013 304.43234235811843Q750.7303010805396 303.2769385651589 754.8516383214056 300.62070097928273L754.8516383214056 300.62070097928273Q755.5305869420108 300.19189132416375 756.1380672867626 300.40629615172327Q756.7336362522058 300.62070097928273 757.0790662521628 301.21626994472587Q757.4244962521198 301.8118389101689 757.4244962521198 302.50269891008287Q757.4244962521198 303.19355890999685 756.9003955625299 303.527077530645L756.9003955625299 303.527077530645Q752.8743493561346 306.36198580615405 749.3604924600204 307.81517408183515Q745.8466355639064 309.2802737368251 742.8449679780732 309.2802737368251L742.8449679780732 309.2802737368251Q740.7842993576402 309.2802737368251 739.1047948750906 308.4226544265871Q737.43720177185 307.56503511634907 736.4485572892145 305.420986840754Q735.459912806579 303.2769385651589 735.459912806579 299.7630816690447L735.459912806579 299.7630816690447Q733.5779148757789 300.01322063453085 731.3862210829484 301.7284592550069Q729.2064386694267 303.44369787548294 726.76460591111 306.5287451164781Q724.3108617734846 309.6257037367821 721.7856493600059 313.9971799431343Q719.2604369465273 318.3686561494865 716.6875790158133 324.02656132119574L716.6875790158133 324.02656132119574L711.6252428095471 339.46370890548025Q711.363192464752 340.3213282157183 710.8033576372356 340.71440373291074Q710.2554341890279 341.09556787079435 708.9690052236709 341.09556787079435ZM702.4415693624148 392.5527264850762L702.4415693624148 391.69510717483826L749.7059224599775 391.69510717483826L749.7059224599775 392.5527264850762L702.4415693624148 392.5527264850762ZM702.4415693624148 339.80913890543735L702.4415693624148 338.0939002849612L749.7059224599775 338.0939002849612L749.7059224599775 339.80913890543735L702.4415693624148 339.80913890543735ZM702.4415693624148 296.9281733935357L702.4415693624148 296.49936373841666L749.7059224599775 296.49936373841666L749.7059224599775 296.9281733935357L702.4415693624148 296.9281733935357ZM702.4415693624148 244.18458581389672L702.4415693624148 243.3269665036587L749.7059224599775 243.3269665036587L749.7059224599775 244.18458581389672L702.4415693624148 244.18458581389672ZM770.9677345262953 341.3576182155893L770.9677345262953 341.3576182155893Q767.9660669404622 341.3576182155893 765.4765886649102 340.3213282157183Q762.9990217686669 339.29694959515626 760.9740872861605 337.4983313195182Q758.9610641829629 335.68780166457117 757.5912555624438 333.210234768328Q756.2214469419248 330.72075649277593 755.4472072868488 327.7190889069428Q754.6729676317727 324.7174213211097 754.6729676317727 321.3703237353196L754.6729676317727 321.3703237353196Q754.6729676317727 318.1066058046916 755.4472072868488 314.5570147706508Q756.2214469419248 310.99551235730115 757.8056603900033 307.56503511634907Q759.3898738380819 304.1345578753969 761.7125928033099 301.34729511712334Q764.023400389229 298.5600323588497 767.1084476302242 296.9281733935357Q770.1934948712194 295.29631442822165 774.1480728017614 295.29631442822165L774.1480728017614 295.29631442822165Q777.0544493531236 295.29631442822165 779.0317383183946 296.45171822118124Q781.0090272836657 297.6190333934496 781.9857603869923 299.5844109794118Q782.9744048696277 301.5616999446828 782.9744048696277 304.30131718572096L782.9744048696277 304.30131718572096Q782.9744048696277 308.7680844265441 780.6993314216352 313.0561809777343Q778.4361693529515 317.34427752892435 774.4458572844828 321.4537033904816Q770.4555452160142 325.5750406313477 765.3098293545861 329.3509478722569L765.3098293545861 329.3509478722569Q760.676302803439 332.864804768371 755.7092576316437 335.5210423542472Q750.7303010805396 338.17727994012324 745.8823697018329 339.7257592502753Q741.0344383231262 341.26232718111845 736.49620280645 341.26232718111845L736.49620280645 341.26232718111845Q735.721963151374 341.26232718111845 735.4241786686524 340.6191126984399Q735.1263941859308 339.97589821576133 735.293153496255 339.2135699399942Q735.459912806579 338.4393302849182 736.067393151331 337.79611580223974Q736.662962116774 337.1529013195612 737.6992521166451 337.1529013195612L737.6992521166451 337.1529013195612Q741.7252983230402 337.1529013195612 746.0967745293924 335.65206752664466Q750.4682507357446 334.151233733728 754.8873724593323 331.6141099409405Q759.3064941829198 329.08889752746194 763.427831423786 325.9204706313047L763.427831423786 325.9204706313047Q767.5372572853432 322.74013235583874 770.8843548711334 319.30965511488654Q774.2314524569234 315.87917787393445 776.244475560121 312.28194132265827Q778.2574986633185 308.6727933920732 778.2574986633185 304.99217718563494L778.2574986633185 304.99217718563494Q778.2574986633185 302.4193192549209 776.9710696979615 300.95421959993087Q775.6846407326045 299.50103132424977 773.1117828018904 299.50103132424977L773.1117828018904 299.50103132424977Q769.7646852161002 299.50103132424977 767.1918272853862 301.7284592550069Q764.6189693546721 303.95588718576397 762.8679965962694 307.35063028878955Q761.105112458558 310.7334620125062 760.2474931483199 314.46172373617986Q759.3898738380819 318.20189683916243 759.3898738380819 321.2869440801575L759.3898738380819 321.2869440801575Q759.3898738380819 324.8008009762718 760.2474931483199 327.67144338970735Q761.105112458558 330.54208580314304 762.6893259066366 332.6861340787381Q764.2854507340239 334.8301823543332 766.5962583199431 335.99749752660165Q768.9070659058623 337.1529013195612 771.7419741813713 337.1529013195612L771.7419741813713 337.1529013195612Q774.6602621120425 337.1529013195612 777.3164996979185 336.03323166452816Q779.9727372837947 334.92547338880405 782.4145700421113 333.11494373385716Q784.8683141797368 331.31632545821896 786.9170714208609 329.3509478722569L786.9170714208609 329.3509478722569Q787.6079314207749 328.57670821718085 788.3345255586155 328.6600878723429Q789.061119696456 328.74346752750495 789.6686000412079 329.3509478722569L789.6686000412079 329.3509478722569Q790.2641690066511 329.9465168376999 790.3951941790485 330.6373768376139Q790.526219351446 331.31632545821896 789.835359351532 332.17394476845703L789.835359351532 332.17394476845703Q787.6913110759369 334.496663733685 784.7730231452658 336.59306649204467Q781.8666465939036 338.68946925040433 778.3408783184807 340.02354373299687Q774.8270214223664 341.3576182155893 770.9677345262953 341.3576182155893ZM749.7059224599775 392.5527264850762L749.7059224599775 391.69510717483826L787.774690731099 391.69510717483826L787.774690731099 392.5527264850762L749.7059224599775 392.5527264850762ZM749.7059224599775 339.80913890543735L749.7059224599775 338.0939002849612L787.774690731099 338.0939002849612L787.774690731099 339.80913890543735L749.7059224599775 339.80913890543735ZM749.7059224599775 296.9281733935357L749.7059224599775 296.49936373841666L787.774690731099 296.49936373841666L787.774690731099 296.9281733935357L749.7059224599775 296.9281733935357ZM749.7059224599775 244.18458581389672L749.7059224599775 243.3269665036587L787.774690731099 243.3269665036587L787.774690731099 244.18458581389672L749.7059224599775 244.18458581389672ZM774.1480728017614 341.26232718111845L774.1480728017614 341.26232718111845Q773.1951624570524 341.26232718111845 772.8973779743309 340.6191126984399Q772.5995934916093 339.97589821576133 772.8139983191688 339.2135699399942Q773.0284031467284 338.4393302849182 773.6716176294069 337.79611580223974Q774.3148321120855 337.1529013195612 775.2558310774855 337.1529013195612L775.2558310774855 337.1529013195612Q777.8286890081996 337.1529013195612 781.4378369387846 335.0088530439661Q785.0350734900608 332.864804768371 789.239790386089 329.08889752746194Q793.4445072821171 325.31299028655275 797.9470086608668 320.25065408028667Q802.4495100396164 315.2002292533294 807.0353910735281 309.2802737368251Q811.6212721074398 303.36031822032095 815.90936865863 297.0591985659332Q820.1974652098202 290.7580789115454 823.8423472783318 284.4093137399222Q827.4872293468434 278.060548568299 830.274492105117 272.1048589138682Q833.0617548633907 266.1372578801286 834.6102341735426 260.9915420187004Q836.1468021043858 255.8458261572722 836.1468021043858 251.98653926120102L836.1468021043858 251.98653926120102Q836.1468021043858 251.04554029580098 836.8376621042996 250.53335098551992Q837.5166107249049 250.0211616752389 838.4695210696137 250.0211616752389Q839.4105200350139 250.0211616752389 840.0894686556189 250.53335098551992Q840.7803286555329 251.04554029580098 840.7803286555329 251.98653926120102L840.7803286555329 251.98653926120102Q840.7803286555329 256.0244968469051 839.1484696902189 261.3846175358928Q837.5166107249049 266.7447382248805 834.6102341735426 272.96247822410623Q831.6919462428715 279.18021822333196 827.785013829565 285.82676787767673Q823.8899927955672 292.47331753202144 819.3398458995821 299.1198671863662Q814.789699003597 305.766416840711 809.8583879697283 311.9365113227013Q804.9270769358595 318.1066058046916 799.9600317640643 323.46672649367923Q794.9810752129601 328.826847182667 790.2641690066511 332.8171592511356Q785.5472628003419 336.8074713196042 781.4378369387846 339.0348992503613Q777.3164996979185 341.26232718111845 774.1480728017614 341.26232718111845ZM801.2464607294214 341.1789475259564L801.2464607294214 341.1789475259564Q798.9237417641934 341.1789475259564 797.5181990057476 340.2855940777918Q796.1007448679932 339.3803292503183 795.4932645232414 337.79611580223974Q794.8976955577982 336.21190235416105 795.1121003853577 333.9368289061685Q795.3265052129171 331.66175545817595 796.1841245231552 328.826847182667L796.1841245231552 328.826847182667L818.911036244463 258.9308733982673Q821.7459445199721 250.35468029588702 825.0453965885267 246.45965926188927Q828.3448486570815 242.55272684858267 832.7997045185957 242.55272684858267L832.7997045185957 242.55272684858267Q835.3725624493097 242.55272684858267 837.1354465870213 243.70813064154225Q838.8983307247328 244.8754458138107 839.8393296901329 246.97184857217033Q840.7803286555329 249.06825133052996 840.7803286555329 251.98653926120102L840.7803286555329 251.98653926120102Q840.7803286555329 253.106208916234 840.0894686556189 253.61839822651507Q839.4105200350139 254.1305875367961 838.4695210696137 254.1305875367961Q837.5166107249049 254.1305875367961 836.8376621042996 253.61839822651507Q836.1468021043858 253.106208916234 836.1468021043858 251.98653926120102L836.1468021043858 251.98653926120102Q836.1468021043858 250.35468029588702 835.7179924492667 249.24692202016288Q835.2891827941478 248.1272523651299 834.4315634839097 247.5316833996868Q833.5739441736716 246.92420305493488 832.2875152083145 246.92420305493488L832.2875152083145 246.92420305493488Q830.6556562430005 246.92420305493488 829.154822450084 248.25827753752736Q827.6539886571675 249.59235202011988 826.2008003814864 252.4987285714821Q824.7476121058053 255.41701650215316 823.1991327956532 260.2173023636244L823.1991327956532 260.2173023636244L800.5556007295074 330.37532649281894Q799.7813610744314 332.6027544235761 799.6979814192694 334.0678540785661Q799.6146017641073 335.5210423542472 800.1744365916238 336.2952820093231Q800.7342714191403 337.06952166439913 801.9254093500265 337.06952166439913L801.9254093500265 337.06952166439913Q803.4738886601785 337.06952166439913 804.891342797933 336.21190235416105Q806.3087969356875 335.3542830439231 807.5475803838092 333.9725630440951Q808.7863638319308 332.6027544235761 809.7392741766397 331.31632545821896L809.7392741766397 331.31632545821896Q810.1680838317586 330.72075649277593 810.7160072799663 330.5063516652164Q811.2758421074828 330.2919468376569 812.0500817625589 330.804136147938L812.0500817625589 330.804136147938Q812.9910807279589 331.399705113381 813.0744603831209 332.00718545813294Q813.1697514175919 332.6027544235761 812.8243214176348 333.29361442349006L812.8243214176348 333.29361442349006Q811.7880314177639 334.92547338880405 810.1204383145232 336.75982580236877Q808.4528452112827 338.6060895952423 806.1777717632901 339.8925185605993Q803.9026983152976 341.1789475259564 801.2464607294214 341.1789475259564ZM787.774690731099 392.5527264850762L787.774690731099 391.69510717483826L821.5672738303392 391.69510717483826L821.5672738303392 392.5527264850762L787.774690731099 392.5527264850762ZM787.774690731099 339.80913890543735L787.774690731099 338.0939002849612L821.5672738303392 338.0939002849612L821.5672738303392 339.80913890543735L787.774690731099 339.80913890543735ZM787.774690731099 296.9281733935357L787.774690731099 296.49936373841666L821.5672738303392 296.49936373841666L821.5672738303392 296.9281733935357L787.774690731099 296.9281733935357ZM787.774690731099 244.18458581389672L787.774690731099 243.3269665036587L821.5672738303392 243.3269665036587L821.5672738303392 244.18458581389672L787.774690731099 244.18458581389672ZM832.2041355531526 341.1789475259564L832.2041355531526 341.1789475259564Q828.1780893467574 341.1789475259564 826.6772555538407 338.17727994012324Q825.1764217609243 335.1756123542902 827.2251790020484 329.0055178722999L827.2251790020484 329.0055178722999L837.5166107249049 297.44036270381673Q837.8620407248618 296.4159840832546 838.3742300351429 296.0229085660622Q838.8983307247328 295.64174442817864 840.0894686556189 295.64174442817864L840.0894686556189 295.64174442817864Q841.4711886554469 295.64174442817864 841.9833779657279 296.15393373845967Q842.495567276009 296.66612304874076 842.150137276052 297.7024130486117L842.150137276052 297.7024130486117L831.5132755532386 330.2919468376569Q830.4055172775145 333.80580373377103 830.7866814153981 335.43766269908514Q831.1797569325904 337.06952166439913 832.9783752082285 337.06952166439913L832.9783752082285 337.06952166439913Q834.3481838287476 337.06952166439913 835.7656379665023 336.21190235416105Q837.1830921042567 335.3542830439231 838.4695210696137 333.9725630440951Q839.7559500349707 332.6027544235761 840.6969490003709 331.31632545821896L840.6969490003709 331.31632545821896Q841.1257586554899 330.72075649277593 841.6855934830064 330.5063516652164Q842.2335169312139 330.2919468376569 843.00775658629 330.804136147938L843.00775658629 330.804136147938Q843.94875555169 331.399705113381 844.0440465861609 332.00718545813294Q844.127426241323 332.6027544235761 843.698616586204 333.29361442349006L843.698616586204 333.29361442349006Q842.578946931171 335.1756123542902 840.8279741727683 336.9742306299283Q839.0650900350568 338.7847602848752 836.9210417594618 339.97589821576133Q834.7769934838666 341.1789475259564 832.2041355531526 341.1789475259564ZM845.0684252067231 281.22897546445614L845.0684252067231 281.22897546445614Q843.6152369310419 281.22897546445614 842.6265924484064 280.466647188689Q841.6379479657709 279.692407533613 841.6379479657709 278.143928223461L841.6379479657709 278.143928223461Q841.6379479657709 276.08325960302795 842.9243769311279 274.41566649978733Q844.210805896485 272.7480733965467 846.5216134824042 272.7480733965467L846.5216134824042 272.7480733965467Q848.0700927925561 272.7480733965467 849.0110917579561 273.51040167231383Q849.9520907233564 274.28464132738986 849.9520907233564 275.9165002927039L849.9520907233564 275.9165002927039Q849.9520907233564 277.8937892579749 848.7133072752347 279.5613823612155Q847.4745238271131 281.22897546445614 845.0684252067231 281.22897546445614ZM821.5672738303392 392.5527264850762L821.5672738303392 391.69510717483826L847.2958531374802 391.69510717483826L847.2958531374802 392.5527264850762L821.5672738303392 392.5527264850762ZM821.5672738303392 339.80913890543735L821.5672738303392 338.0939002849612L847.2958531374802 338.0939002849612L847.2958531374802 339.80913890543735L821.5672738303392 339.80913890543735ZM821.5672738303392 296.9281733935357L821.5672738303392 296.49936373841666L847.2958531374802 296.49936373841666L847.2958531374802 296.9281733935357L821.5672738303392 296.9281733935357ZM821.5672738303392 244.18458581389672L821.5672738303392 243.3269665036587L847.2958531374802 243.3269665036587L847.2958531374802 244.18458581389672L821.5672738303392 244.18458581389672ZM862.4828617562787 341.26232718111845L862.4828617562787 341.26232718111845Q859.1357641704885 341.26232718111845 856.6939314121719 339.64237959511325Q854.2401872745464 338.01052062979915 852.9180241712628 334.92547338880405Q851.5839496886704 331.82851476850004 851.5839496886704 327.7190889069428L851.5839496886704 327.7190889069428Q851.5839496886704 323.7764223557096 852.7036193437034 319.35730063212196Q853.8113776194275 314.9381789085343 856.08645106742 310.69772787457964Q858.3615245154126 306.44536546131604 861.7443562391293 302.9315085652019Q865.1390993421549 299.4176516690878 869.593955203669 297.3569830486547Q874.0607224444921 295.29631442822165 879.5399569265684 295.29631442822165L879.5399569265684 295.29631442822165Q882.3748652020774 295.29631442822165 885.3288872706751 296.2015792556951Q888.2948207185816 297.09493270385974 890.7842989941337 298.7267916691738L890.7842989941337 298.7267916691738L891.2131086492527 297.2736033934927Q891.5466272699009 296.3326044280926 892.1541076146527 295.98717442813563Q892.7496765800959 295.64174442817864 893.8693462351289 295.64174442817864L893.8693462351289 295.64174442817864Q895.405914165972 295.64174442817864 895.7989896831643 296.28495891085714Q896.180153821048 296.9281733935357 895.834723821091 297.95255201409776L895.834723821091 297.95255201409776L885.1144824431155 330.804136147938Q884.4355338225105 332.864804768371 884.387888305275 334.2822589061255Q884.3521541673485 335.68780166457117 884.9477231327916 336.4263071817206Q885.5432920982346 337.1529013195612 886.7463414084297 337.1529013195612L886.7463414084297 337.1529013195612Q888.1161500289486 337.1529013195612 889.5336041667033 336.2952820093231Q890.9510583044578 335.43766269908514 892.1541076146527 334.1035882164926Q893.3571569248478 332.78142511320897 894.2981558902479 331.399705113381L894.2981558902479 331.399705113381Q894.8103452005289 330.72075649277593 895.3701800280454 330.54208580314304Q895.9300148555619 330.37532649281894 896.692343131329 330.88751580310003L896.692343131329 330.88751580310003Q897.6452534760379 331.49499614785196 897.7286331312 332.090565113295Q897.8120127863621 332.6861340787381 897.383203131243 333.3769940786521L897.383203131243 333.3769940786521Q896.4422041658429 334.92547338880405 894.7626996832935 336.8074713196042Q893.0951065800527 338.68946925040433 890.9034127872224 339.97589821576133Q888.7236303737006 341.26232718111845 885.9721017533536 341.26232718111845L885.9721017533536 341.26232718111845Q884.0067241673914 341.26232718111845 882.7202952020343 340.58337856051327Q881.4338662366774 339.8925185605993 880.7430062367634 338.6537351124777Q880.0640576161583 337.4030402850472 879.9687665816874 335.7354471818066Q879.8853869265254 334.0678540785661 880.3141965816444 332.090565113295L880.3141965816444 332.090565113295Q880.6596265816013 330.72075649277593 881.0884362367203 329.4343275274188Q881.5172458918394 328.1478985620618 881.8626758917964 326.77808994154276L881.8626758917964 326.77808994154276Q878.3488189956822 332.090565113295 874.9183417547301 335.25899200945224Q871.4878645137779 338.4393302849182 868.3551717555474 339.8567844226728Q865.2224789973168 341.26232718111845 862.4828617562787 341.26232718111845ZM856.4795265846125 327.29027925182385L856.4795265846125 327.29027925182385Q856.4795265846125 330.20856718249485 857.289500377615 332.38834959601655Q858.0994741706177 334.58004338884706 859.695598998005 335.78309269904213Q861.2798124460837 336.9742306299283 863.6739996871647 336.9742306299283L863.6739996871647 336.9742306299283Q866.8543379626308 336.9742306299283 870.451574513907 334.53239787161164Q874.0607224444921 332.090565113295 877.9200093405632 327.1592540794264Q881.7792962366343 322.22794304555765 885.6385831327054 314.6761285637394L885.6385831327054 314.6761285637394L889.5812496839387 302.50269891008287Q886.4962024429435 300.7040806344448 883.959078650156 300.09660028969284Q881.4338662366774 299.50103132424977 879.1111472714495 299.50103132424977L879.1111472714495 299.50103132424977Q874.5729117547731 299.50103132424977 870.963763824188 301.34729511712334Q867.366527272912 303.19355890999685 864.6626441698003 306.19522649582996Q861.9587610666888 309.19689408166306 860.124408653124 312.8417761501748Q858.2781448602506 316.4866582186864 857.3728800327771 320.25065408028667Q856.4795265846125 324.02656132119574 856.4795265846125 327.29027925182385ZM847.2958531374802 392.5527264850762L847.2958531374802 391.69510717483826L900.6469210618711 391.69510717483826L900.6469210618711 392.5527264850762L847.2958531374802 392.5527264850762ZM847.2958531374802 339.80913890543735L847.2958531374802 338.0939002849612L900.6469210618711 338.0939002849612L900.6469210618711 339.80913890543735L847.2958531374802 339.80913890543735ZM847.2958531374802 296.9281733935357L847.2958531374802 296.49936373841666L900.6469210618711 296.49936373841666L900.6469210618711 296.9281733935357L847.2958531374802 296.9281733935357ZM847.2958531374802 244.18458581389672L847.2958531374802 243.3269665036587L900.6469210618711 243.3269665036587L900.6469210618711 244.18458581389672L847.2958531374802 244.18458581389672Z " fill="#fce77d" transform="matrix(0.9715239262657064,0,0,0.9715239262657064,0,-8.510067103719763)"/></g></svg>